<svg width="350" height="80" viewBox="0 0 350 80" fill="none" xmlns="http://www.w3.org/2000/svg">
<g clip-path="url(#clip0_18_43)">
<rect width="350" height="80" fill="#29432B"/>
<path d="M23.5 7C23.5 9 23.5 11 23.5 13C27.1138 12.5363 30.7275 12.1263 34.3413 11.7701C41.7275 11.0421 49.1138 10.5386 56.5 10.2598C61.0163 10.0352 65.6151 12.484 67.9991 16.4239C69.3065 18.5358 70.0032 21.0162 69.9942 23.5C69.9773 34.5 69.9226 45.5 69.8303 56.5C69.9408 63.6082 63.4762 69.8755 56.5 69.6057C45.5 69.465 34.5 69.2867 23.5 69.0707C16.7908 69.0864 11.0483 62.937 11.3924 56.5C11.6567 45.5 11.9588 34.5 12.2985 23.5C12.3933 20.6183 13.6514 17.8728 15.679 15.9505C17.7896 13.9233 20.6763 12.8579 23.5 13C23.5 11 23.5 9 23.5 7C19.084 7.10308 14.7895 9.09745 11.8954 12.2972C9.09906 15.3334 7.57354 19.46 7.70152 23.5C8.04121 34.5 8.34325 45.5 8.60764 56.5C8.60202 64.4449 15.8274 71.2633 23.5 70.9293C34.5 70.7133 45.5 70.535 56.5 70.3943C63.9057 70.4742 70.4089 63.7737 70.1697 56.5C70.0774 45.5 70.0227 34.5 70.0058 23.5C70.0069 21.0141 69.3064 18.5358 67.9991 16.4239C65.6098 12.4998 61.1922 9.87899 56.5 9.74025C49.1138 9.46136 41.7275 8.9579 34.3413 8.22986C30.7275 7.87366 27.1138 7.46371 23.5 7Z" fill="#F2C94C"/>
<g filter="url(#filter0_d_18_43)">
<path d="M52.3612 15.0366C42.2266 13.5581 36.5445 13.7543 26.41 15.0366C20.5467 15.0366 15.7936 19.8884 15.7936 25.8733C13.4403 36.2185 13.3642 42.0179 15.7936 52.3631C15.7936 58.3481 20.5467 63.1998 26.41 63.1998C37.2356 65.5882 42.9234 65.6119 52.3612 63.1998C58.2245 63.1998 62.9776 58.3481 62.9776 52.3631C65.7757 42.0182 65.5706 36.2183 62.9776 25.8733C62.9776 19.8884 58.2245 15.0366 52.3612 15.0366Z" fill="#F2C94C"/>
<path d="M52.3612 15.0366C42.2266 13.5581 36.5445 13.7543 26.41 15.0366C20.5467 15.0366 15.7936 19.8884 15.7936 25.8733C13.4403 36.2185 13.3642 42.0179 15.7936 52.3631C15.7936 58.3481 20.5467 63.1998 26.41 63.1998C37.2356 65.5882 42.9234 65.6119 52.3612 63.1998C58.2245 63.1998 62.9776 58.3481 62.9776 52.3631C65.7757 42.0182 65.5706 36.2183 62.9776 25.8733C62.9776 19.8884 58.2245 15.0366 52.3612 15.0366Z" stroke="#F2C94C" stroke-width="6"/>
</g>
<path d="M51 35C54.3137 35 57 32.3137 57 29C57 25.6863 54.3137 23 51 23C47.6863 23 45 25.6863 45 29C45 32.3137 47.6863 35 51 35Z" fill="#29432B"/>
<path d="M27 59C30.3137 59 33 56.3137 33 53C33 49.6863 30.3137 47 27 47C23.6863 47 21 49.6863 21 53C21 56.3137 23.6863 59 27 59Z" fill="#29432B"/>
<path d="M92.08 60.72C93.52 60.72 94.5467 60.4667 95.16 59.96C95.8 59.4267 96.12 58.8 96.12 58.08C96.12 57.4133 95.8667 56.88 95.36 56.48C94.88 56.0533 94.16 55.6933 93.2 55.4L91.08 54.72C89.64 54.24 88.36 53.7067 87.24 53.12C86.1467 52.5333 85.2933 51.7733 84.68 50.84C84.0933 49.9067 83.8 48.72 83.8 47.28C83.8 45.0667 84.64 43.3067 86.32 42C88 40.6933 90.3333 40.04 93.32 40.04C94.84 40.04 96.1867 40.1867 97.36 40.48C98.56 40.7733 99.4933 41.2133 100.16 41.8C100.853 42.36 101.2 43.0533 101.2 43.88C101.2 44.4933 101.053 45.0267 100.76 45.48C100.493 45.9067 100.147 46.28 99.72 46.6C99.1067 46.1733 98.2933 45.8133 97.28 45.52C96.2667 45.2 95.1467 45.04 93.92 45.04C92.64 45.04 91.68 45.2533 91.04 45.68C90.4 46.08 90.08 46.6133 90.08 47.28C90.08 47.8133 90.2933 48.2533 90.72 48.6C91.1467 48.92 91.7867 49.2133 92.64 49.48L94.84 50.16C97.2667 50.9067 99.1333 51.9067 100.44 53.16C101.747 54.3867 102.4 56.04 102.4 58.12C102.4 60.36 101.533 62.1867 99.8 63.6C98.0667 64.9867 95.56 65.68 92.28 65.68C90.6533 65.68 89.2 65.5067 87.92 65.16C86.64 64.8133 85.6133 64.3067 84.84 63.64C84.0933 62.9733 83.72 62.2 83.72 61.32C83.72 60.6267 83.92 60.04 84.32 59.56C84.7467 59.0533 85.2133 58.68 85.72 58.44C86.44 59.0267 87.3333 59.56 88.4 60.04C89.4933 60.4933 90.72 60.72 92.08 60.72ZM106.598 48.04H112.518V64.76C112.278 64.8133 111.904 64.88 111.398 64.96C110.918 65.04 110.398 65.08 109.838 65.08C108.851 65.08 108.064 64.7867 107.478 64.2C106.891 63.6133 106.598 62.8267 106.598 61.84V48.04ZM112.518 57.72H106.598V44C106.598 42.9867 106.891 42.2 107.478 41.64C108.064 41.0533 108.851 40.76 109.838 40.76C110.398 40.76 110.918 40.8 111.398 40.88C111.904 40.96 112.278 41.0267 112.518 41.08V57.72ZM109.838 55.04V50.24H121.918C122.078 50.5067 122.224 50.84 122.358 51.24C122.491 51.64 122.558 52.08 122.558 52.56C122.558 53.4133 122.358 54.04 121.958 54.44C121.584 54.84 121.078 55.04 120.438 55.04H109.838ZM109.838 65.08V60.24H123.238C123.398 60.48 123.544 60.8133 123.678 61.24C123.811 61.6667 123.878 62.12 123.878 62.6C123.878 63.4533 123.678 64.08 123.278 64.48C122.904 64.88 122.398 65.08 121.758 65.08H109.838ZM109.838 45.56V40.76H123.038C123.224 41 123.371 41.32 123.478 41.72C123.611 42.12 123.678 42.56 123.678 43.04C123.678 43.8933 123.491 44.5333 123.118 44.96C122.744 45.36 122.224 45.56 121.558 45.56H109.838ZM146.841 44.04C146.841 44.6533 146.681 45.1867 146.361 45.64C146.041 46.0933 145.681 46.4533 145.281 46.72C144.615 46.2667 143.855 45.8667 143.001 45.52C142.175 45.1733 141.188 45 140.041 45C138.628 45 137.401 45.3067 136.361 45.92C135.321 46.5333 134.521 47.4267 133.961 48.6C133.428 49.7733 133.161 51.2 133.161 52.88C133.161 55.44 133.801 57.3867 135.081 58.72C136.361 60.0533 138.121 60.72 140.361 60.72C141.508 60.72 142.495 60.56 143.321 60.24C144.148 59.92 144.908 59.56 145.601 59.16C146.001 59.4533 146.321 59.84 146.561 60.32C146.828 60.7733 146.961 61.3067 146.961 61.92C146.961 62.4533 146.815 62.9467 146.521 63.4C146.255 63.8533 145.788 64.24 145.121 64.56C144.615 64.8267 143.895 65.08 142.961 65.32C142.028 65.56 140.895 65.68 139.561 65.68C137.215 65.68 135.068 65.2267 133.121 64.32C131.201 63.3867 129.681 61.9867 128.561 60.12C127.441 58.2267 126.881 55.8133 126.881 52.88C126.881 50.1067 127.428 47.7733 128.521 45.88C129.641 43.96 131.135 42.5067 133.001 41.52C134.868 40.5333 136.935 40.04 139.201 40.04C140.775 40.04 142.135 40.2267 143.281 40.6C144.428 40.9467 145.308 41.4267 145.921 42.04C146.535 42.6267 146.841 43.2933 146.841 44.04ZM174.298 52.84C174.298 55.6133 173.752 57.96 172.658 59.88C171.592 61.7733 170.112 63.2133 168.218 64.2C166.352 65.1867 164.232 65.68 161.858 65.68C159.485 65.68 157.365 65.1867 155.498 64.2C153.632 63.2133 152.165 61.7733 151.098 59.88C150.032 57.96 149.498 55.6133 149.498 52.84C149.498 50.0667 150.045 47.7333 151.138 45.84C152.232 43.92 153.712 42.48 155.578 41.52C157.445 40.5333 159.538 40.04 161.858 40.04C164.205 40.04 166.312 40.5333 168.178 41.52C170.072 42.48 171.565 43.92 172.658 45.84C173.752 47.7333 174.298 50.0667 174.298 52.84ZM168.018 52.84C168.018 50.28 167.458 48.3333 166.338 47C165.245 45.6667 163.752 45 161.858 45C160.045 45 158.578 45.6667 157.458 47C156.338 48.3067 155.778 50.2533 155.778 52.84C155.778 55.4533 156.325 57.4267 157.418 58.76C158.538 60.0667 160.032 60.72 161.898 60.72C163.765 60.72 165.245 60.0667 166.338 58.76C167.458 57.4267 168.018 55.4533 168.018 52.84ZM178.746 47.68L184.266 47.6C184.373 48.7467 184.453 49.88 184.506 51C184.56 52.12 184.586 53.2 184.586 54.24C184.613 55.28 184.626 56.2933 184.626 57.28V65C184.386 65.0533 184 65.1067 183.466 65.16C182.96 65.24 182.44 65.28 181.906 65.28C180.733 65.28 179.906 65.08 179.426 64.68C178.973 64.28 178.746 63.56 178.746 62.52V47.68ZM200.066 57.96L194.506 58C194.32 56.0533 194.213 54.2 194.186 52.44C194.16 50.68 194.146 49 194.146 47.4V40.68C194.413 40.6267 194.8 40.56 195.306 40.48C195.813 40.4 196.346 40.36 196.906 40.36C198.053 40.36 198.866 40.5733 199.346 41C199.826 41.4 200.066 42.1067 200.066 43.12V57.96ZM200.066 56.04V64.24C199.72 64.56 199.226 64.8133 198.586 65C197.973 65.2133 197.24 65.32 196.386 65.32C195.48 65.32 194.626 65.1733 193.826 64.88C193.053 64.5867 192.413 63.9333 191.906 62.92L187.066 53.72C186.773 53.1333 186.48 52.5467 186.186 51.96C185.92 51.3733 185.653 50.7867 185.386 50.2C185.12 49.5867 184.853 48.9733 184.586 48.36L178.746 49.68V41.8C179.066 41.3467 179.56 41 180.226 40.76C180.92 40.52 181.666 40.4 182.466 40.4C183.346 40.4 184.173 40.5467 184.946 40.84C185.746 41.1333 186.4 41.7733 186.906 42.76L191.786 52C192.08 52.56 192.373 53.1467 192.666 53.76C192.96 54.3467 193.24 54.9333 193.506 55.52C193.773 56.1067 194.026 56.7067 194.266 57.32L200.066 56.04ZM221.499 52.88C221.499 51.0933 221.193 49.6267 220.579 48.48C219.993 47.3333 219.166 46.48 218.099 45.92C217.059 45.3333 215.846 45.04 214.459 45.04C213.979 45.04 213.513 45.0667 213.059 45.12C212.633 45.1467 212.193 45.1867 211.739 45.24V60.4C212.139 60.48 212.593 60.5467 213.099 60.6C213.606 60.6267 214.086 60.64 214.539 60.64C216.646 60.64 218.326 59.9867 219.579 58.68C220.859 57.3733 221.499 55.44 221.499 52.88ZM227.779 52.76C227.779 55.64 227.219 58.0267 226.099 59.92C225.006 61.8133 223.459 63.24 221.459 64.2C219.486 65.1333 217.166 65.6 214.499 65.6C213.619 65.6 212.539 65.5333 211.259 65.4C209.979 65.2933 208.819 65.0533 207.779 64.68C206.393 64.1733 205.699 63.28 205.699 62V42.88C205.699 42.3467 205.846 41.9467 206.139 41.68C206.433 41.3867 206.819 41.1467 207.299 40.96C208.366 40.6133 209.513 40.3867 210.739 40.28C211.966 40.1733 213.086 40.12 214.099 40.12C216.846 40.12 219.233 40.5867 221.259 41.52C223.313 42.4267 224.913 43.8133 226.059 45.68C227.206 47.5467 227.779 49.9067 227.779 52.76ZM245.511 45.64L245.471 40.76H257.831C257.991 41 258.137 41.3333 258.271 41.76C258.404 42.1867 258.471 42.64 258.471 43.12C258.471 43.9733 258.271 44.6133 257.871 45.04C257.497 45.44 256.977 45.64 256.311 45.64H245.511ZM251.151 40.76L251.191 45.64H238.831C238.644 45.4 238.484 45.0667 238.351 44.64C238.244 44.2133 238.191 43.76 238.191 43.28C238.191 42.4 238.377 41.76 238.751 41.36C239.151 40.96 239.671 40.76 240.311 40.76H251.151ZM245.191 44.56H251.311V64.96C251.044 65.04 250.644 65.1067 250.111 65.16C249.577 65.24 249.031 65.28 248.471 65.28C247.271 65.28 246.417 65.0667 245.911 64.64C245.431 64.2133 245.191 63.4667 245.191 62.4V44.56ZM272.505 65.68C270.318 65.68 268.438 65.2933 266.865 64.52C265.318 63.72 264.118 62.6133 263.265 61.2C262.438 59.7867 262.025 58.1333 262.025 56.24V53.6H268.145V56.08C268.145 57.5467 268.545 58.6933 269.345 59.52C270.171 60.32 271.225 60.72 272.505 60.72C273.785 60.72 274.825 60.32 275.625 59.52C276.451 58.6933 276.865 57.5467 276.865 56.08V53.6H282.985V56.24C282.985 58.1333 282.571 59.7867 281.745 61.2C280.918 62.6133 279.718 63.72 278.145 64.52C276.571 65.2933 274.691 65.68 272.505 65.68ZM268.145 54.8H262.025V40.68C262.318 40.6267 262.731 40.56 263.265 40.48C263.798 40.4 264.331 40.36 264.865 40.36C266.011 40.36 266.838 40.56 267.345 40.96C267.878 41.36 268.145 42.12 268.145 43.24V54.8ZM282.985 54.88H276.865V40.68C277.158 40.6267 277.571 40.56 278.105 40.48C278.665 40.4 279.198 40.36 279.705 40.36C280.851 40.36 281.678 40.56 282.185 40.96C282.718 41.36 282.985 42.12 282.985 43.24V54.88ZM294.591 52.12H297.191C298.524 52.12 299.591 51.8267 300.391 51.24C301.218 50.6267 301.631 49.7333 301.631 48.56C301.631 47.4133 301.244 46.5467 300.471 45.96C299.698 45.3467 298.511 45.04 296.911 45.04C296.458 45.04 296.044 45.0533 295.671 45.08C295.298 45.1067 294.938 45.16 294.591 45.24V52.12ZM297.751 56.84H288.551V42.88C288.551 42.3733 288.698 41.9733 288.991 41.68C289.284 41.3867 289.671 41.16 290.151 41C291.031 40.68 292.058 40.4533 293.231 40.32C294.431 40.1867 295.671 40.12 296.951 40.12C300.551 40.12 303.258 40.88 305.071 42.4C306.884 43.8933 307.791 45.9333 307.791 48.52C307.791 50.12 307.351 51.56 306.471 52.84C305.618 54.0933 304.431 55.08 302.911 55.8C301.418 56.4933 299.698 56.84 297.751 56.84ZM296.631 55.4L302.071 54.12C302.684 54.9733 303.311 55.8133 303.951 56.64C304.618 57.4667 305.244 58.2667 305.831 59.04C306.444 59.8133 306.991 60.5333 307.471 61.2C307.951 61.84 308.338 62.3867 308.631 62.84C308.391 63.64 307.964 64.2667 307.351 64.72C306.738 65.1467 306.044 65.36 305.271 65.36C304.284 65.36 303.524 65.1467 302.991 64.72C302.484 64.2667 302.004 63.68 301.551 62.96L296.631 55.4ZM288.551 54.56H294.631V64.96C294.391 65.04 294.004 65.1067 293.471 65.16C292.938 65.24 292.391 65.28 291.831 65.28C290.631 65.28 289.778 65.0667 289.271 64.64C288.791 64.2133 288.551 63.4667 288.551 62.4V54.56ZM312.692 47.68L318.212 47.6C318.318 48.7467 318.398 49.88 318.452 51C318.505 52.12 318.532 53.2 318.532 54.24C318.558 55.28 318.572 56.2933 318.572 57.28V65C318.332 65.0533 317.945 65.1067 317.412 65.16C316.905 65.24 316.385 65.28 315.852 65.28C314.678 65.28 313.852 65.08 313.372 64.68C312.918 64.28 312.692 63.56 312.692 62.52V47.68ZM334.012 57.96L328.452 58C328.265 56.0533 328.158 54.2 328.132 52.44C328.105 50.68 328.092 49 328.092 47.4V40.68C328.358 40.6267 328.745 40.56 329.252 40.48C329.758 40.4 330.292 40.36 330.852 40.36C331.998 40.36 332.812 40.5733 333.292 41C333.772 41.4 334.012 42.1067 334.012 43.12V57.96ZM334.012 56.04V64.24C333.665 64.56 333.172 64.8133 332.532 65C331.918 65.2133 331.185 65.32 330.332 65.32C329.425 65.32 328.572 65.1733 327.772 64.88C326.998 64.5867 326.358 63.9333 325.852 62.92L321.012 53.72C320.718 53.1333 320.425 52.5467 320.132 51.96C319.865 51.3733 319.598 50.7867 319.332 50.2C319.065 49.5867 318.798 48.9733 318.532 48.36L312.692 49.68V41.8C313.012 41.3467 313.505 41 314.172 40.76C314.865 40.52 315.612 40.4 316.412 40.4C317.292 40.4 318.118 40.5467 318.892 40.84C319.692 41.1333 320.345 41.7733 320.852 42.76L325.732 52C326.025 52.56 326.318 53.1467 326.612 53.76C326.905 54.3467 327.185 54.9333 327.452 55.52C327.718 56.1067 327.972 56.7067 328.212 57.32L334.012 56.04Z" fill="#E6EAD7"/>
<path d="M85.048 24.92L84.904 22.52L90.856 21.584C90.824 21.136 90.632 20.72 90.28 20.336C89.928 19.952 89.408 19.76 88.72 19.76C88 19.76 87.4 20.008 86.92 20.504C86.44 20.984 86.184 21.672 86.152 22.568L86.272 24.224C86.416 25.104 86.792 25.736 87.4 26.12C88.008 26.488 88.728 26.672 89.56 26.672C90.232 26.672 90.864 26.576 91.456 26.384C92.048 26.192 92.528 25.992 92.896 25.784C93.136 25.928 93.328 26.128 93.472 26.384C93.632 26.64 93.712 26.912 93.712 27.2C93.712 27.68 93.52 28.08 93.136 28.4C92.768 28.72 92.248 28.96 91.576 29.12C90.92 29.28 90.168 29.36 89.32 29.36C88.088 29.36 86.976 29.128 85.984 28.664C85.008 28.2 84.24 27.504 83.68 26.576C83.12 25.648 82.84 24.488 82.84 23.096C82.84 22.072 83 21.184 83.32 20.432C83.656 19.68 84.096 19.064 84.64 18.584C85.2 18.088 85.824 17.72 86.512 17.48C87.216 17.24 87.944 17.12 88.696 17.12C89.8 17.12 90.76 17.344 91.576 17.792C92.408 18.224 93.056 18.816 93.52 19.568C93.984 20.32 94.216 21.192 94.216 22.184C94.216 22.68 94.08 23.056 93.808 23.312C93.536 23.568 93.16 23.728 92.68 23.792L85.048 24.92ZM105.33 17.24C105.826 17.24 106.234 17.352 106.554 17.576C106.89 17.784 107.058 18.144 107.058 18.656C107.058 18.944 106.978 19.392 106.818 20C106.658 20.608 106.442 21.312 106.17 22.112C105.914 22.912 105.626 23.728 105.306 24.56C104.986 25.392 104.666 26.176 104.346 26.912C104.026 27.632 103.738 28.232 103.482 28.712C103.306 28.84 103.026 28.952 102.642 29.048C102.258 29.16 101.834 29.216 101.37 29.216C100.826 29.216 100.354 29.144 99.9541 29C99.5701 28.856 99.2981 28.632 99.1381 28.328C98.9621 27.992 98.7461 27.52 98.4901 26.912C98.2341 26.304 97.9621 25.616 97.6741 24.848C97.3861 24.064 97.0981 23.256 96.8101 22.424C96.5221 21.592 96.2581 20.792 96.0181 20.024C95.7781 19.256 95.5861 18.584 95.4421 18.008C95.6501 17.8 95.9141 17.624 96.2341 17.48C96.5701 17.32 96.9301 17.24 97.3141 17.24C97.8101 17.24 98.2181 17.344 98.5381 17.552C98.8581 17.76 99.0901 18.152 99.2341 18.728L100.314 22.544C100.442 22.992 100.57 23.44 100.698 23.888C100.842 24.336 100.97 24.752 101.082 25.136C101.194 25.52 101.29 25.848 101.37 26.12H101.466C101.85 24.824 102.234 23.44 102.618 21.968C103.018 20.48 103.37 19.032 103.674 17.624C104.154 17.368 104.706 17.24 105.33 17.24ZM110.618 24.92L110.474 22.52L116.426 21.584C116.394 21.136 116.202 20.72 115.85 20.336C115.498 19.952 114.978 19.76 114.29 19.76C113.57 19.76 112.97 20.008 112.49 20.504C112.01 20.984 111.754 21.672 111.722 22.568L111.842 24.224C111.986 25.104 112.362 25.736 112.97 26.12C113.578 26.488 114.298 26.672 115.13 26.672C115.802 26.672 116.434 26.576 117.026 26.384C117.618 26.192 118.098 25.992 118.466 25.784C118.706 25.928 118.898 26.128 119.042 26.384C119.202 26.64 119.282 26.912 119.282 27.2C119.282 27.68 119.09 28.08 118.706 28.4C118.338 28.72 117.818 28.96 117.146 29.12C116.49 29.28 115.738 29.36 114.89 29.36C113.658 29.36 112.546 29.128 111.554 28.664C110.578 28.2 109.81 27.504 109.25 26.576C108.69 25.648 108.41 24.488 108.41 23.096C108.41 22.072 108.57 21.184 108.89 20.432C109.226 19.68 109.666 19.064 110.21 18.584C110.77 18.088 111.394 17.72 112.082 17.48C112.786 17.24 113.514 17.12 114.266 17.12C115.37 17.12 116.33 17.344 117.146 17.792C117.978 18.224 118.626 18.816 119.09 19.568C119.554 20.32 119.786 21.192 119.786 22.184C119.786 22.68 119.65 23.056 119.378 23.312C119.106 23.568 118.73 23.728 118.25 23.792L110.618 24.92ZM125.522 20.576V23.576H121.97V20.144C121.97 19.696 122.074 19.32 122.282 19.016C122.506 18.696 122.81 18.416 123.194 18.176C123.722 17.856 124.354 17.608 125.09 17.432C125.842 17.24 126.626 17.144 127.442 17.144C129.074 17.144 129.89 17.688 129.89 18.776C129.89 19.032 129.85 19.272 129.77 19.496C129.706 19.72 129.626 19.912 129.53 20.072C129.37 20.04 129.17 20.016 128.93 20C128.706 19.968 128.458 19.952 128.186 19.952C127.706 19.952 127.226 20.008 126.746 20.12C126.266 20.232 125.858 20.384 125.522 20.576ZM121.97 22.664L125.522 22.736V28.976C125.362 29.024 125.138 29.064 124.85 29.096C124.562 29.144 124.25 29.168 123.914 29.168C123.242 29.168 122.746 29.048 122.426 28.808C122.122 28.568 121.97 28.136 121.97 27.512V22.664ZM133.968 26.144C133.712 25.616 133.432 24.976 133.128 24.224C132.84 23.472 132.536 22.584 132.216 21.56C131.896 20.536 131.552 19.352 131.184 18.008C131.392 17.8 131.656 17.624 131.976 17.48C132.312 17.32 132.672 17.24 133.056 17.24C133.552 17.24 133.96 17.344 134.28 17.552C134.6 17.76 134.84 18.152 135 18.728C135.368 19.896 135.736 21.056 136.104 22.208C136.472 23.36 136.848 24.52 137.232 25.688H137.328C137.6 24.968 137.872 24.152 138.144 23.24C138.432 22.328 138.696 21.392 138.936 20.432C139.176 19.456 139.384 18.52 139.56 17.624C139.784 17.512 140.024 17.424 140.28 17.36C140.536 17.28 140.8 17.24 141.072 17.24C141.568 17.24 141.992 17.352 142.344 17.576C142.712 17.784 142.896 18.144 142.896 18.656C142.896 19.104 142.824 19.656 142.68 20.312C142.552 20.968 142.376 21.68 142.152 22.448C141.928 23.2 141.664 23.976 141.36 24.776C141.056 25.56 140.736 26.32 140.4 27.056C140.08 27.792 139.752 28.456 139.416 29.048C138.552 30.552 137.752 31.672 137.016 32.408C136.296 33.16 135.576 33.536 134.856 33.536C134.28 33.536 133.8 33.36 133.416 33.008C133.048 32.656 132.824 32.208 132.744 31.664C133.096 31.376 133.456 31.04 133.824 30.656C134.192 30.288 134.544 29.888 134.88 29.456C135.216 29.04 135.512 28.624 135.768 28.208C135.496 28.128 135.216 27.952 134.928 27.68C134.64 27.408 134.32 26.896 133.968 26.144ZM154.472 28.544C153.528 28.544 152.648 28.368 151.832 28.016C151.032 27.648 150.384 27.048 149.888 26.216C149.408 25.368 149.168 24.264 149.168 22.904C149.168 21.64 149.416 20.584 149.912 19.736C150.424 18.872 151.136 18.224 152.048 17.792C152.96 17.344 154.016 17.12 155.216 17.12C156.08 17.12 156.88 17.24 157.616 17.48C158.368 17.704 158.952 17.952 159.368 18.224C159.656 18.416 159.888 18.648 160.064 18.92C160.24 19.176 160.328 19.504 160.328 19.904V27.44H156.896V20.312C156.72 20.216 156.504 20.128 156.248 20.048C156.008 19.968 155.704 19.928 155.336 19.928C154.568 19.928 153.936 20.168 153.44 20.648C152.96 21.128 152.72 21.88 152.72 22.904C152.72 24.024 152.944 24.8 153.392 25.232C153.856 25.648 154.432 25.856 155.12 25.856C155.648 25.856 156.088 25.768 156.44 25.592C156.792 25.4 157.096 25.192 157.352 24.968L157.448 27.8C157.112 28.008 156.704 28.184 156.224 28.328C155.744 28.472 155.16 28.544 154.472 28.544ZM156.968 28.88V26.648H160.328V28.976C160.328 30.096 160.064 31.008 159.536 31.712C159.024 32.416 158.32 32.936 157.424 33.272C156.544 33.608 155.552 33.776 154.448 33.776C153.616 33.776 152.872 33.704 152.216 33.56C151.576 33.416 151.088 33.232 150.752 33.008C150.208 32.656 149.936 32.16 149.936 31.52C149.936 31.184 150 30.88 150.128 30.608C150.272 30.352 150.44 30.16 150.632 30.032C151.064 30.288 151.576 30.504 152.168 30.68C152.76 30.872 153.384 30.968 154.04 30.968C154.936 30.968 155.648 30.8 156.176 30.464C156.704 30.144 156.968 29.616 156.968 28.88ZM167.831 26.72C168.199 26.72 168.559 26.688 168.911 26.624C169.279 26.544 169.543 26.456 169.703 26.36V24.056L167.687 24.248C167.143 24.28 166.711 24.392 166.391 24.584C166.071 24.776 165.911 25.064 165.911 25.448C165.911 25.832 166.063 26.144 166.367 26.384C166.671 26.608 167.159 26.72 167.831 26.72ZM167.687 17.12C169.351 17.12 170.679 17.472 171.671 18.176C172.663 18.864 173.159 19.936 173.159 21.392V26.84C173.159 27.24 173.055 27.568 172.847 27.824C172.639 28.064 172.375 28.272 172.055 28.448C171.575 28.736 170.975 28.96 170.255 29.12C169.551 29.296 168.743 29.384 167.831 29.384C166.199 29.384 164.895 29.064 163.919 28.424C162.959 27.784 162.479 26.832 162.479 25.568C162.479 24.48 162.815 23.648 163.487 23.072C164.159 22.48 165.159 22.12 166.487 21.992L169.679 21.656V21.368C169.679 20.824 169.463 20.432 169.031 20.192C168.615 19.952 168.015 19.832 167.231 19.832C166.623 19.832 166.023 19.904 165.431 20.048C164.855 20.192 164.335 20.36 163.871 20.552C163.679 20.424 163.511 20.232 163.367 19.976C163.239 19.704 163.175 19.424 163.175 19.136C163.175 18.464 163.543 17.976 164.279 17.672C164.743 17.48 165.279 17.344 165.887 17.264C166.511 17.168 167.111 17.12 167.687 17.12ZM186.364 21.056V23.792H182.788V21.512C182.788 20.968 182.628 20.568 182.308 20.312C181.988 20.056 181.588 19.928 181.108 19.928C180.756 19.928 180.436 19.984 180.148 20.096C179.876 20.192 179.644 20.296 179.452 20.408V23.792H175.9V20.048C175.9 19.648 175.98 19.32 176.14 19.064C176.316 18.792 176.564 18.552 176.884 18.344C177.412 17.976 178.06 17.68 178.828 17.456C179.596 17.232 180.396 17.12 181.228 17.12C181.996 17.12 182.716 17.24 183.388 17.48C184.06 17.72 184.644 18.088 185.14 18.584C185.268 18.68 185.388 18.784 185.5 18.896C185.628 18.992 185.724 19.104 185.788 19.232C185.948 19.488 186.084 19.776 186.196 20.096C186.308 20.416 186.364 20.736 186.364 21.056ZM193.252 21.416V23.792H189.7V21.512C189.7 20.968 189.548 20.568 189.244 20.312C188.94 20.056 188.54 19.928 188.044 19.928C187.676 19.928 187.324 20.008 186.988 20.168C186.668 20.312 186.388 20.488 186.148 20.696L184.276 18.632C184.804 18.216 185.404 17.864 186.076 17.576C186.748 17.272 187.572 17.12 188.548 17.12C189.38 17.12 190.156 17.264 190.876 17.552C191.596 17.84 192.172 18.296 192.604 18.92C193.036 19.544 193.252 20.376 193.252 21.416ZM175.9 22.688H179.452V28.976C179.292 29.024 179.068 29.064 178.78 29.096C178.492 29.144 178.18 29.168 177.844 29.168C177.172 29.168 176.676 29.048 176.356 28.808C176.052 28.568 175.9 28.136 175.9 27.512V22.688ZM182.788 22.688H186.364V28.976C186.204 29.024 185.98 29.064 185.692 29.096C185.404 29.144 185.092 29.168 184.756 29.168C184.068 29.168 183.564 29.048 183.244 28.808C182.94 28.568 182.788 28.136 182.788 27.512V22.688ZM189.7 22.688H193.252V28.976C193.108 29.024 192.892 29.064 192.604 29.096C192.316 29.144 192.004 29.168 191.668 29.168C190.98 29.168 190.476 29.048 190.156 28.808C189.852 28.568 189.7 28.136 189.7 27.512V22.688ZM197.712 24.92L197.568 22.52L203.52 21.584C203.488 21.136 203.296 20.72 202.944 20.336C202.592 19.952 202.072 19.76 201.384 19.76C200.664 19.76 200.064 20.008 199.584 20.504C199.104 20.984 198.848 21.672 198.816 22.568L198.936 24.224C199.08 25.104 199.456 25.736 200.064 26.12C200.672 26.488 201.392 26.672 202.224 26.672C202.896 26.672 203.528 26.576 204.12 26.384C204.712 26.192 205.192 25.992 205.56 25.784C205.8 25.928 205.992 26.128 206.136 26.384C206.296 26.64 206.376 26.912 206.376 27.2C206.376 27.68 206.184 28.08 205.8 28.4C205.432 28.72 204.912 28.96 204.24 29.12C203.584 29.28 202.832 29.36 201.984 29.36C200.752 29.36 199.64 29.128 198.648 28.664C197.672 28.2 196.904 27.504 196.344 26.576C195.784 25.648 195.504 24.488 195.504 23.096C195.504 22.072 195.664 21.184 195.984 20.432C196.32 19.68 196.76 19.064 197.304 18.584C197.864 18.088 198.488 17.72 199.176 17.48C199.88 17.24 200.608 17.12 201.36 17.12C202.464 17.12 203.424 17.344 204.24 17.792C205.072 18.224 205.72 18.816 206.184 19.568C206.648 20.32 206.88 21.192 206.88 22.184C206.88 22.68 206.744 23.056 206.472 23.312C206.2 23.568 205.824 23.728 205.344 23.792L197.712 24.92ZM221.333 26.144V18.92H224.885V26.6C224.885 26.984 224.805 27.312 224.645 27.584C224.485 27.84 224.229 28.072 223.877 28.28C223.445 28.568 222.877 28.816 222.173 29.024C221.485 29.248 220.685 29.36 219.773 29.36C218.445 29.36 217.293 29.136 216.317 28.688C215.357 28.24 214.613 27.568 214.085 26.672C213.573 25.76 213.317 24.632 213.317 23.288C213.317 21.88 213.581 20.728 214.109 19.832C214.653 18.92 215.381 18.24 216.293 17.792C217.205 17.344 218.213 17.12 219.317 17.12C219.893 17.12 220.405 17.184 220.853 17.312C221.301 17.44 221.669 17.592 221.957 17.768V20.696C221.733 20.504 221.437 20.328 221.069 20.168C220.701 20.008 220.277 19.928 219.797 19.928C219.237 19.928 218.741 20.048 218.309 20.288C217.877 20.528 217.541 20.896 217.301 21.392C217.061 21.888 216.941 22.52 216.941 23.288C216.941 24.408 217.189 25.232 217.685 25.76C218.197 26.288 218.885 26.552 219.749 26.552C220.101 26.552 220.413 26.512 220.685 26.432C220.957 26.336 221.173 26.24 221.333 26.144ZM224.885 19.616L221.333 19.64V13.376C221.477 13.328 221.693 13.28 221.981 13.232C222.269 13.184 222.581 13.16 222.917 13.16C223.621 13.16 224.125 13.28 224.429 13.52C224.733 13.76 224.885 14.2 224.885 14.84V19.616ZM229.376 24.92L229.232 22.52L235.184 21.584C235.152 21.136 234.96 20.72 234.608 20.336C234.256 19.952 233.736 19.76 233.048 19.76C232.328 19.76 231.728 20.008 231.248 20.504C230.768 20.984 230.512 21.672 230.48 22.568L230.6 24.224C230.744 25.104 231.12 25.736 231.728 26.12C232.336 26.488 233.056 26.672 233.888 26.672C234.56 26.672 235.192 26.576 235.784 26.384C236.376 26.192 236.856 25.992 237.224 25.784C237.464 25.928 237.656 26.128 237.8 26.384C237.96 26.64 238.04 26.912 238.04 27.2C238.04 27.68 237.848 28.08 237.464 28.4C237.096 28.72 236.576 28.96 235.904 29.12C235.248 29.28 234.496 29.36 233.648 29.36C232.416 29.36 231.304 29.128 230.312 28.664C229.336 28.2 228.568 27.504 228.008 26.576C227.448 25.648 227.168 24.488 227.168 23.096C227.168 22.072 227.328 21.184 227.648 20.432C227.984 19.68 228.424 19.064 228.968 18.584C229.528 18.088 230.152 17.72 230.84 17.48C231.544 17.24 232.272 17.12 233.024 17.12C234.128 17.12 235.088 17.344 235.904 17.792C236.736 18.224 237.384 18.816 237.848 19.568C238.312 20.32 238.544 21.192 238.544 22.184C238.544 22.68 238.408 23.056 238.136 23.312C237.864 23.568 237.488 23.728 237.008 23.792L229.376 24.92ZM250.087 25.64C250.087 26.808 249.647 27.728 248.767 28.4C247.887 29.056 246.607 29.384 244.927 29.384C243.615 29.384 242.535 29.192 241.687 28.808C240.839 28.424 240.415 27.856 240.415 27.104C240.415 26.768 240.487 26.48 240.631 26.24C240.775 25.984 240.959 25.784 241.183 25.64C241.631 25.896 242.151 26.136 242.743 26.36C243.351 26.568 244.039 26.672 244.807 26.672C245.975 26.672 246.559 26.336 246.559 25.664C246.559 25.376 246.455 25.152 246.247 24.992C246.039 24.816 245.695 24.688 245.215 24.608L244.207 24.368C242.927 24.096 241.967 23.68 241.327 23.12C240.703 22.544 240.391 21.76 240.391 20.768C240.391 19.648 240.839 18.76 241.735 18.104C242.647 17.432 243.871 17.096 245.407 17.096C246.175 17.096 246.871 17.176 247.495 17.336C248.135 17.48 248.639 17.712 249.007 18.032C249.375 18.336 249.559 18.72 249.559 19.184C249.559 19.504 249.495 19.784 249.367 20.024C249.239 20.264 249.071 20.464 248.863 20.624C248.687 20.512 248.415 20.392 248.047 20.264C247.695 20.136 247.303 20.032 246.871 19.952C246.455 19.872 246.063 19.832 245.695 19.832C245.119 19.832 244.671 19.912 244.351 20.072C244.031 20.216 243.871 20.448 243.871 20.768C243.871 20.976 243.959 21.16 244.135 21.32C244.327 21.464 244.655 21.584 245.119 21.68L246.079 21.92C247.503 22.24 248.527 22.704 249.151 23.312C249.775 23.904 250.087 24.68 250.087 25.64ZM254.079 24.92L253.935 22.52L259.887 21.584C259.855 21.136 259.663 20.72 259.311 20.336C258.959 19.952 258.439 19.76 257.751 19.76C257.031 19.76 256.431 20.008 255.951 20.504C255.471 20.984 255.215 21.672 255.183 22.568L255.303 24.224C255.447 25.104 255.823 25.736 256.431 26.12C257.039 26.488 257.759 26.672 258.591 26.672C259.263 26.672 259.895 26.576 260.487 26.384C261.079 26.192 261.559 25.992 261.927 25.784C262.167 25.928 262.359 26.128 262.503 26.384C262.663 26.64 262.743 26.912 262.743 27.2C262.743 27.68 262.551 28.08 262.167 28.4C261.799 28.72 261.279 28.96 260.607 29.12C259.951 29.28 259.199 29.36 258.351 29.36C257.119 29.36 256.007 29.128 255.015 28.664C254.039 28.2 253.271 27.504 252.711 26.576C252.151 25.648 251.871 24.488 251.871 23.096C251.871 22.072 252.031 21.184 252.351 20.432C252.687 19.68 253.127 19.064 253.671 18.584C254.231 18.088 254.855 17.72 255.543 17.48C256.247 17.24 256.975 17.12 257.727 17.12C258.831 17.12 259.791 17.344 260.607 17.792C261.439 18.224 262.087 18.816 262.551 19.568C263.015 20.32 263.247 21.192 263.247 22.184C263.247 22.68 263.111 23.056 262.839 23.312C262.567 23.568 262.191 23.728 261.711 23.792L254.079 24.92ZM268.983 20.576V23.576H265.431V20.144C265.431 19.696 265.535 19.32 265.743 19.016C265.967 18.696 266.271 18.416 266.655 18.176C267.183 17.856 267.815 17.608 268.551 17.432C269.303 17.24 270.087 17.144 270.903 17.144C272.535 17.144 273.351 17.688 273.351 18.776C273.351 19.032 273.311 19.272 273.231 19.496C273.167 19.72 273.087 19.912 272.991 20.072C272.831 20.04 272.631 20.016 272.391 20C272.167 19.968 271.919 19.952 271.647 19.952C271.167 19.952 270.687 20.008 270.207 20.12C269.727 20.232 269.319 20.384 268.983 20.576ZM265.431 22.664L268.983 22.736V28.976C268.823 29.024 268.599 29.064 268.311 29.096C268.023 29.144 267.711 29.168 267.375 29.168C266.703 29.168 266.207 29.048 265.887 28.808C265.583 28.568 265.431 28.136 265.431 27.512V22.664ZM284.533 17.24C285.029 17.24 285.437 17.352 285.757 17.576C286.093 17.784 286.261 18.144 286.261 18.656C286.261 18.944 286.181 19.392 286.021 20C285.861 20.608 285.645 21.312 285.373 22.112C285.117 22.912 284.829 23.728 284.509 24.56C284.189 25.392 283.869 26.176 283.549 26.912C283.229 27.632 282.941 28.232 282.685 28.712C282.509 28.84 282.229 28.952 281.845 29.048C281.461 29.16 281.037 29.216 280.573 29.216C280.029 29.216 279.557 29.144 279.157 29C278.773 28.856 278.501 28.632 278.341 28.328C278.165 27.992 277.949 27.52 277.693 26.912C277.437 26.304 277.165 25.616 276.877 24.848C276.589 24.064 276.301 23.256 276.013 22.424C275.725 21.592 275.461 20.792 275.221 20.024C274.981 19.256 274.789 18.584 274.645 18.008C274.853 17.8 275.117 17.624 275.437 17.48C275.773 17.32 276.133 17.24 276.517 17.24C277.013 17.24 277.421 17.344 277.741 17.552C278.061 17.76 278.293 18.152 278.437 18.728L279.517 22.544C279.645 22.992 279.773 23.44 279.901 23.888C280.045 24.336 280.173 24.752 280.285 25.136C280.397 25.52 280.493 25.848 280.573 26.12H280.669C281.053 24.824 281.437 23.44 281.821 21.968C282.221 20.48 282.573 19.032 282.877 17.624C283.357 17.368 283.909 17.24 284.533 17.24ZM289.821 24.92L289.677 22.52L295.629 21.584C295.597 21.136 295.405 20.72 295.053 20.336C294.701 19.952 294.181 19.76 293.493 19.76C292.773 19.76 292.173 20.008 291.693 20.504C291.213 20.984 290.957 21.672 290.925 22.568L291.045 24.224C291.189 25.104 291.565 25.736 292.173 26.12C292.781 26.488 293.501 26.672 294.333 26.672C295.005 26.672 295.637 26.576 296.229 26.384C296.821 26.192 297.301 25.992 297.669 25.784C297.909 25.928 298.101 26.128 298.245 26.384C298.405 26.64 298.485 26.912 298.485 27.2C298.485 27.68 298.293 28.08 297.909 28.4C297.541 28.72 297.021 28.96 296.349 29.12C295.693 29.28 294.941 29.36 294.093 29.36C292.861 29.36 291.749 29.128 290.757 28.664C289.781 28.2 289.013 27.504 288.453 26.576C287.893 25.648 287.613 24.488 287.613 23.096C287.613 22.072 287.773 21.184 288.093 20.432C288.429 19.68 288.869 19.064 289.413 18.584C289.973 18.088 290.597 17.72 291.285 17.48C291.989 17.24 292.717 17.12 293.469 17.12C294.573 17.12 295.533 17.344 296.349 17.792C297.181 18.224 297.829 18.816 298.293 19.568C298.757 20.32 298.989 21.192 298.989 22.184C298.989 22.68 298.853 23.056 298.581 23.312C298.309 23.568 297.933 23.728 297.453 23.792L289.821 24.92ZM310.533 25.64C310.533 26.808 310.093 27.728 309.213 28.4C308.333 29.056 307.053 29.384 305.373 29.384C304.061 29.384 302.981 29.192 302.133 28.808C301.285 28.424 300.861 27.856 300.861 27.104C300.861 26.768 300.933 26.48 301.077 26.24C301.221 25.984 301.405 25.784 301.629 25.64C302.077 25.896 302.597 26.136 303.189 26.36C303.797 26.568 304.485 26.672 305.253 26.672C306.421 26.672 307.005 26.336 307.005 25.664C307.005 25.376 306.901 25.152 306.693 24.992C306.485 24.816 306.141 24.688 305.661 24.608L304.653 24.368C303.373 24.096 302.413 23.68 301.773 23.12C301.149 22.544 300.837 21.76 300.837 20.768C300.837 19.648 301.285 18.76 302.181 18.104C303.093 17.432 304.317 17.096 305.853 17.096C306.621 17.096 307.317 17.176 307.941 17.336C308.581 17.48 309.085 17.712 309.453 18.032C309.821 18.336 310.005 18.72 310.005 19.184C310.005 19.504 309.941 19.784 309.813 20.024C309.685 20.264 309.517 20.464 309.309 20.624C309.133 20.512 308.861 20.392 308.493 20.264C308.141 20.136 307.749 20.032 307.317 19.952C306.901 19.872 306.509 19.832 306.141 19.832C305.565 19.832 305.117 19.912 304.797 20.072C304.477 20.216 304.317 20.448 304.317 20.768C304.317 20.976 304.405 21.16 304.581 21.32C304.773 21.464 305.101 21.584 305.565 21.68L306.525 21.92C307.949 22.24 308.973 22.704 309.597 23.312C310.221 23.904 310.533 24.68 310.533 25.64ZM322.284 26.72C322.652 26.72 323.012 26.688 323.364 26.624C323.732 26.544 323.996 26.456 324.156 26.36V24.056L322.14 24.248C321.596 24.28 321.164 24.392 320.844 24.584C320.524 24.776 320.364 25.064 320.364 25.448C320.364 25.832 320.516 26.144 320.82 26.384C321.124 26.608 321.612 26.72 322.284 26.72ZM322.14 17.12C323.804 17.12 325.132 17.472 326.124 18.176C327.116 18.864 327.612 19.936 327.612 21.392V26.84C327.612 27.24 327.508 27.568 327.3 27.824C327.092 28.064 326.828 28.272 326.508 28.448C326.028 28.736 325.428 28.96 324.708 29.12C324.004 29.296 323.196 29.384 322.284 29.384C320.652 29.384 319.348 29.064 318.372 28.424C317.412 27.784 316.932 26.832 316.932 25.568C316.932 24.48 317.268 23.648 317.94 23.072C318.612 22.48 319.612 22.12 320.94 21.992L324.132 21.656V21.368C324.132 20.824 323.916 20.432 323.484 20.192C323.068 19.952 322.468 19.832 321.684 19.832C321.076 19.832 320.476 19.904 319.884 20.048C319.308 20.192 318.788 20.36 318.324 20.552C318.132 20.424 317.964 20.232 317.82 19.976C317.692 19.704 317.628 19.424 317.628 19.136C317.628 18.464 317.996 17.976 318.732 17.672C319.196 17.48 319.732 17.344 320.34 17.264C320.964 17.168 321.564 17.12 322.14 17.12Z" fill="#F2C94C"/>
</g>
<defs>
<filter id="filter0_d_18_43" x="7" y="11" width="65" height="65" filterUnits="userSpaceOnUse" color-interpolation-filters="sRGB">
<feFlood flood-opacity="0" result="BackgroundImageFix"/>
<feColorMatrix in="SourceAlpha" type="matrix" values="0 0 0 0 0 0 0 0 0 0 0 0 0 0 0 0 0 0 127 0" result="hardAlpha"/>
<feOffset dy="4"/>
<feGaussianBlur stdDeviation="2"/>
<feComposite in2="hardAlpha" operator="out"/>
<feColorMatrix type="matrix" values="0 0 0 0 0 0 0 0 0 0 0 0 0 0 0 0 0 0 0.25 0"/>
<feBlend mode="normal" in2="BackgroundImageFix" result="effect1_dropShadow_18_43"/>
<feBlend mode="normal" in="SourceGraphic" in2="effect1_dropShadow_18_43" result="shape"/>
</filter>
<clipPath id="clip0_18_43">
<rect width="350" height="80" fill="white"/>
</clipPath>
</defs>
</svg>
